<?xml version="1.0" standalone="no"?><!DOCTYPE svg PUBLIC "-//W3C//DTD SVG 1.1//EN" "http://www.w3.org/Graphics/SVG/1.1/DTD/svg11.dtd"><svg t="1590469897873" class="icon" viewBox="0 0 1027 1024" version="1.1" xmlns="http://www.w3.org/2000/svg" p-id="40274" xmlns:xlink="http://www.w3.org/1999/xlink" width="200.5859375" height="200"><defs><style type="text/css"></style></defs><path d="M512.657 62.88c247.915 0 451.335 203.425 451.335 451.34 0 247.916-203.42 451.336-451.335 451.336S61.317 762.136 61.317 514.22c0-247.92 203.425-451.34 451.34-451.34m0-57.212C232.953 5.668 4.11 234.511 4.11 514.215c0 279.694 228.843 508.542 508.547 508.542 279.694 0 508.542-228.843 508.542-508.542 0-279.699-228.848-508.547-508.542-508.547z m0 0" p-id="40275" fill="#4EA5FE"></path><path d="M738.322 514.215c0 123.958-101.707 225.665-225.665 225.665s-225.67-101.707-225.67-225.665 101.712-225.67 225.67-225.67c123.958 0 225.665 101.713 225.665 225.67z m0 0" p-id="40276" fill="#4EA5FE"></path></svg>