<?xml version="1.0" standalone="no"?><!DOCTYPE svg PUBLIC "-//W3C//DTD SVG 1.1//EN" "http://www.w3.org/Graphics/SVG/1.1/DTD/svg11.dtd"><svg t="1590469507054" class="icon" viewBox="0 0 1024 1024" version="1.1" xmlns="http://www.w3.org/2000/svg" p-id="9347" xmlns:xlink="http://www.w3.org/1999/xlink" width="200" height="200"><defs><style type="text/css"></style></defs><path d="M170.889 508.614h109.886c10.485 0 18.943-8.03 18.943-18.283 0-10.251-8.458-19.177-18.943-19.177H170.89c-10.723 0-18.731 8.926-18.731 19.177 0 10.253 8.01 18.283 18.73 18.283z m0-69.114h109.886c10.485 0 18.943-8.02 18.943-18.282 0-10.7-8.458-19.168-18.943-19.168H170.89c-10.723 0-18.731 8.468-18.731 19.168 0 10.262 8.01 18.282 18.73 18.282z m758.815-240.756H703.207v-63.751c0-17.385-14.268-31.652-31.42-31.652H354.565c-17.385 0-31.204 14.267-31.204 31.652v63.751H96.864c-17.385 0-31.653 14.268-31.653 31.663v613.482c0 16.938 14.267 31.203 31.653 31.203H323.36v13.37c0 17.394 13.818 31.662 31.204 31.662h317.224c17.151 0 31.42-14.268 31.42-31.662v-13.37h226.496c17.385 0 31.204-14.265 31.204-31.203V230.407c-0.001-17.395-13.82-31.663-31.205-31.663zM323.36 812.227H128.086V261.61H323.36v550.616h0.001z m316.99 45.033H386.218V166.207H640.35V857.26z m257.683-45.033H703.207V261.61h194.826v550.616z m-727.144-441.83h109.886c10.485 0 18.943-8.02 18.943-18.28 0-10.702-8.458-19.169-18.943-19.169H170.89c-10.723 0-18.731 8.468-18.731 19.169 0 10.26 8.01 18.28 18.73 18.28z m104.547 286.228c-12.71-12.921-30.33-20.953-49.722-20.953-19.391 0-37.01 8.032-49.485 20.953-12.707 12.494-20.506 29.88-20.506 49.047 0 19.17 7.135 36.557 19.179 48.6l1.326 1.338c12.474 12.929 30.094 20.512 49.485 20.512 19.393 0 37.011-7.583 49.722-20.512 12.707-12.485 20.737-29.871 20.737-49.938 0-18.72-7.601-35.666-19.628-48.149l-1.108-0.898z m-26.763 72.231c-5.574 5.801-14.052 9.804-22.96 9.804-9.14 0-16.936-4.003-22.744-9.804l-1.093-0.448c-5.36-6.237-8.712-13.37-8.712-22.736 0-8.915 3.567-16.498 9.374-22.734l0.431 0.448c5.807-6.246 13.603-10.262 22.744-10.262 8.907 0 17.386 4.016 22.96 10.262l0.898 0.438c5.358 5.798 8.692 13.381 8.692 21.848 0 9.365-3.567 17.388-9.59 23.184zM745.58 439.5H855.7c10.68 0 18.944-8.02 18.944-18.282 0-10.7-8.263-19.168-18.944-19.168H745.58c-10.722 0-18.963 8.468-18.963 19.168 0 10.262 8.241 18.282 18.963 18.282z m0 69.114H855.7c10.68 0 18.944-8.03 18.944-18.283 0-10.251-8.263-19.177-18.944-19.177H745.58c-10.722 0-18.963 8.926-18.963 19.177 0 10.253 8.241 18.283 18.963 18.283z m0-138.217H855.7c10.68 0 18.944-8.02 18.944-18.28 0-10.702-8.263-19.169-18.944-19.169H745.58c-10.722 0-18.963 8.468-18.963 19.169 0 10.26 8.241 18.28 18.963 18.28z m-300.072 102.55h135.321c10.467 0 18.943-8.479 18.943-19.178 0-10.254-8.476-18.722-18.943-18.722h-135.32c-10.683 0-18.945 8.468-18.945 18.722 0 10.698 8.262 19.178 18.944 19.178zM850.34 656.625c-12.708-12.921-30.306-20.953-49.935-20.953-19.158 0-37.01 8.032-49.484 20.953-12.473 12.494-20.505 29.88-20.505 49.047 0 19.17 7.563 36.557 19.607 48.6l0.898 1.338c12.473 12.929 30.327 20.512 49.484 20.512 19.63 0 37.227-7.583 49.935-20.512 12.494-12.485 20.503-29.871 20.503-49.938 0-18.72-7.132-35.666-19.607-48.149l-0.896-0.898z m-26.76 72.231c-5.789 5.801-13.8 9.804-23.175 9.804-8.478 0-16.937-4.003-22.744-9.804l-0.897-0.448c-5.341-6.237-8.908-13.37-8.908-22.736 0-8.915 3.567-16.498 9.805-22.734v0.448c5.807-6.246 14.265-10.262 22.744-10.262 9.375 0 17.386 4.016 23.175 10.262l0.895 0.438c5.36 5.798 8.694 13.381 8.694 21.848 0 9.365-3.333 17.388-9.59 23.184zM445.507 303.078h135.321c10.467 0 18.943-8.47 18.943-18.73 0-10.702-8.476-18.721-18.943-18.721h-135.32c-10.683 0-18.945 8.02-18.945 18.721 0 10.26 8.262 18.73 18.944 18.73z m0 85.154h135.321c10.467 0 18.943-8.917 18.943-19.17 0-10.252-8.476-18.28-18.943-18.28h-135.32c-10.683 0-18.945 8.028-18.945 18.28 0 10.253 8.262 19.17 18.944 19.17z m126.627 274.193l-1.11-0.44c-14.928-15.162-35.004-24.528-57.73-24.528-22.082 0-42.371 8.918-57.068 23.183l-0.895 1.344c-14.714 14.268-24.09 34.77-24.09 57.955 0 22.736 9.377 43.25 24.09 57.515 14.696 15.157 35.218 24.071 57.964 24.071 22.726 0 42.802-9.363 57.73-24.071 14.928-14.265 24.284-34.78 24.284-57.515 0-22.284-8.907-42.352-23.175-57.514zM544.5 750.708c-8.031 8.017-19.18 13.368-31.205 13.368-12.493 0-23.641-5.35-31.222-12.92h-0.432l0.432-0.448c-8.246-7.583-13.373-18.732-13.373-30.767 0-12.482 5.127-23.632 13.373-31.213l0.447-0.886c8.029-8.024 18.966-12.485 30.775-12.485 12.473 0 23.174 4.902 31.205 13.371l0.876 0.447c7.602 7.583 12.045 18.284 12.045 30.766 0.001 12.035-4.91 23.183-12.921 30.767z" p-id="9348" fill="#4EA5FE"></path></svg>